<svg width="97" height="97" viewBox="0 0 97 97" fill="none" xmlns="http://www.w3.org/2000/svg">
<g clip-path="url(#clip0_120_5346)">
<g clip-path="url(#clip1_120_5346)">
<path fill-rule="evenodd" clip-rule="evenodd" d="M87.3648 22.678C90.3609 23.7683 92.8272 25.9624 94.2589 28.8112C95.6907 31.66 95.9797 34.9483 95.0669 38.0032L94.8357 38.6994L77.7347 85.6841C76.6443 88.6802 74.4503 91.1465 71.6015 92.5782C68.7527 94.01 65.4644 94.299 62.4095 93.3862L61.7132 93.155L14.7286 76.054C11.7325 74.9636 9.2662 72.7696 7.83443 69.9208C6.40267 67.0719 6.11364 63.7837 7.02648 60.7288L7.25772 60.0325L24.3587 13.0479C25.449 10.0518 27.6431 7.58549 30.4919 6.15373C33.3407 4.72196 36.629 4.43293 39.6839 5.34577L40.3801 5.57701L87.3648 22.678ZM34.4927 52.209C33.0327 51.6776 31.4271 51.7092 29.9891 52.2974C28.5511 52.8856 27.3837 53.9884 26.7146 55.3906L26.482 55.9444L26.2899 56.5574C25.902 58.0613 26.088 59.6559 26.8116 61.0302C27.5353 62.4045 28.7447 63.4601 30.2042 63.9914C31.6638 64.5226 33.2688 64.4913 34.7065 63.9037C36.1443 63.316 37.3117 62.2141 37.9813 60.8127L38.2139 60.2588L38.4059 59.6459C38.7947 58.1416 38.6093 56.5465 37.8858 55.1716C37.1623 53.7966 35.9526 52.7404 34.4927 52.209ZM61.9004 62.1845C60.4404 61.6532 58.8348 61.6848 57.3968 62.273C55.9588 62.8612 54.7914 63.9639 54.1223 65.3662L53.8754 65.9592C53.3272 67.4677 53.3804 69.1293 54.0239 70.5997C54.6674 72.0702 55.852 73.2366 57.3322 73.8574C58.8123 74.4783 60.4746 74.5058 61.9745 73.9344C63.4744 73.3631 64.697 72.2365 65.389 70.7882L65.6358 70.1953C66.2028 68.6376 66.1277 66.9186 65.4272 65.4163C64.7266 63.914 63.458 62.7515 61.9004 62.1845ZM53.1843 43.4929C51.7243 42.9616 50.1187 42.9931 48.6807 43.5813C47.2427 44.1696 46.0753 45.2723 45.4062 46.6745L45.1594 47.2675C44.6111 48.7761 44.6643 50.4377 45.3078 51.9081C45.9514 53.3785 47.136 54.545 48.6161 55.1658C50.0962 55.7866 51.7585 55.8142 53.2584 55.2428C54.7583 54.6714 55.981 53.5449 56.6729 52.0966L56.9198 51.5036C57.4867 49.946 57.4116 48.2269 56.7111 46.7246C56.0106 45.2223 54.742 44.0598 53.1843 43.4929ZM44.4683 24.8013C43.0083 24.2699 41.4027 24.3015 39.9647 24.8897C38.5266 25.4779 37.3593 26.5807 36.6902 27.9829L36.4576 28.5367L36.2655 29.1497C35.8776 30.6536 36.0636 32.2482 36.7872 33.6225C37.5109 34.9968 38.7203 36.0524 40.1798 36.5837C41.6393 37.1149 43.2444 37.0836 44.6821 36.496C46.1198 35.9083 47.2873 34.8064 47.9568 33.405L48.1895 32.8511L48.3815 32.2382C48.7703 30.7339 48.5849 29.1388 47.8614 27.7639C47.1379 26.3889 45.9282 25.3327 44.4683 24.8013ZM71.876 34.7768C70.416 34.2455 68.8104 34.2771 67.3724 34.8653C65.9343 35.4535 64.767 36.5562 64.0979 37.9585L63.851 38.5515C63.3028 40.06 63.3559 41.7216 63.9995 43.192C64.643 44.6625 65.8276 45.8289 67.3077 46.4497C68.7879 47.0706 70.4501 47.0981 71.9501 46.5267C73.45 45.9553 74.6726 44.8288 75.3645 43.3805L75.6114 42.7876C76.1783 41.2299 76.1033 39.5109 75.4028 38.0086C74.7022 36.5063 73.4336 35.3438 71.876 34.7768Z" fill="#060C74"/>
</g>
</g>
<defs>
<clipPath id="clip0_120_5346">
<rect width="97" height="97" fill="white"/>
</clipPath>
<clipPath id="clip1_120_5346">
<rect width="100" height="100" fill="white" transform="translate(21.1631 -14.7197) rotate(20)"/>
</clipPath>
</defs>
</svg>
